<mxfile host="65bd71144e">
    <diagram id="LoVYD131x6eVN4LB-mYg" name="Страница 1">
        <mxGraphModel dx="736" dy="346" grid="1" gridSize="10" guides="1" tooltips="1" connect="1" arrows="1" fold="1" page="1" pageScale="1" pageWidth="827" pageHeight="1169" math="0" shadow="0">
            <root>
                <mxCell id="0"/>
                <mxCell id="1" parent="0"/>
                <mxCell id="2" value="&lt;span style=&quot;font-size: 11px;&quot;&gt;public abstract class Animals {&lt;/span&gt;&lt;br&gt;&lt;span style=&quot;font-size: 11px;&quot;&gt;&amp;nbsp; &amp;nbsp;protected String TypeOfAnimal;&lt;/span&gt;&lt;br&gt;&lt;span style=&quot;font-size: 11px;&quot;&gt;&amp;nbsp; &amp;nbsp;protected String NameOfAnimal;&lt;/span&gt;&lt;br&gt;&lt;span lang=&quot;EN-US&quot; style=&quot;font-size: 11px;&quot;&gt;&amp;nbsp; &amp;nbsp;protected String FirstName;&lt;/span&gt;&lt;span style=&quot;font-size: 11px;&quot;&gt;&amp;nbsp;&lt;br&gt;&amp;nbsp;&amp;nbsp;&lt;/span&gt;&lt;br&gt;public Animals (String TypeOfAnimal,&lt;br&gt;&lt;span lang=&quot;EN-US&quot;&gt;&amp;nbsp;String NameOfAnima,&lt;/span&gt; String FirstName)&lt;span lang=&quot;EN-US&quot; style=&quot;background-color: initial;&quot;&gt;{&lt;/span&gt;&lt;br&gt;&amp;nbsp; &amp;nbsp;this. TypeOfAnimal = TypeOfAnimal;&lt;br&gt;&amp;nbsp; &amp;nbsp;this. NameOfAnimal = NameOfAnimal; &lt;br&gt;&amp;nbsp; &amp;nbsp;this. FirstName = FirstName;}}" style="rounded=0;whiteSpace=wrap;html=1;align=left;" vertex="1" parent="1">
                    <mxGeometry x="220" y="640" width="230" height="150" as="geometry"/>
                </mxCell>
                <mxCell id="9" style="edgeStyle=none;html=1;exitX=0.5;exitY=0;exitDx=0;exitDy=0;fontFamily=Helvetica;fontSize=3;entryX=0;entryY=0.75;entryDx=0;entryDy=0;" edge="1" parent="1" source="3" target="2">
                    <mxGeometry relative="1" as="geometry">
                        <mxPoint x="210" y="760" as="targetPoint"/>
                        <Array as="points">
                            <mxPoint x="100" y="753"/>
                        </Array>
                    </mxGeometry>
                </mxCell>
                <mxCell id="3" value="&lt;p style=&quot;margin-bottom:0cm;margin-bottom:.0001pt&quot; class=&quot;MsoNormal&quot;&gt;&lt;span lang=&quot;EN-US&quot;&gt;public class Dogs extends Animals {&lt;br&gt;&lt;/span&gt;&lt;/p&gt;&lt;p style=&quot;margin-bottom: 0.0001pt; font-size: 3px;&quot; class=&quot;MsoNormal&quot;&gt;&lt;span lang=&quot;EN-US&quot;&gt;&lt;br&gt;&lt;/span&gt;&lt;/p&gt;&lt;div style=&quot;text-indent: 0px;&quot;&gt;&lt;span style=&quot;background-color: initial; text-indent: 9.75pt;&quot;&gt;&amp;nbsp; &amp;nbsp; public Dogs (String FirstName){&lt;/span&gt;&lt;/div&gt;&lt;div style=&quot;text-indent: 0px;&quot;&gt;&lt;span style=&quot;text-indent: 9.75pt; background-color: initial;&quot;&gt;&amp;nbsp; &amp;nbsp;&amp;nbsp;&lt;/span&gt;&lt;span style=&quot;text-indent: 9.75pt; background-color: initial;&quot;&gt;super.TypeOfAnimal=”Pets”;&lt;/span&gt;&lt;span style=&quot;background-color: initial;&quot;&gt;&amp;nbsp; &amp;nbsp; &amp;nbsp;&amp;nbsp;&lt;/span&gt;&lt;span style=&quot;background-color: initial;&quot;&gt;&amp;nbsp;&amp;nbsp;&lt;/span&gt;&lt;span style=&quot;background-color: initial;&quot;&gt;super.NameOfAnimal=“Dogs”;&lt;br&gt;&lt;/span&gt;&lt;span style=&quot;background-color: initial;&quot;&gt;&amp;nbsp; &amp;nbsp; super.FirstName=FirstName;&lt;/span&gt;&lt;span style=&quot;background-color: initial;&quot;&gt;}}&lt;/span&gt;&lt;/div&gt;&lt;p&gt;&lt;/p&gt;" style="rounded=0;whiteSpace=wrap;html=1;align=left;" vertex="1" parent="1">
                    <mxGeometry y="820" width="200" height="100" as="geometry"/>
                </mxCell>
                <mxCell id="10" style="edgeStyle=none;html=1;exitX=0.5;exitY=0;exitDx=0;exitDy=0;entryX=0.407;entryY=1.004;entryDx=0;entryDy=0;entryPerimeter=0;fontFamily=Helvetica;fontSize=3;" edge="1" parent="1" source="4" target="2">
                    <mxGeometry relative="1" as="geometry"/>
                </mxCell>
                <mxCell id="4" value="&lt;p style=&quot;margin-bottom:0cm;margin-bottom:.0001pt&quot; class=&quot;MsoNormal&quot;&gt;&lt;span lang=&quot;EN-US&quot;&gt;public class Cats extends Animals {&lt;br&gt;&lt;/span&gt;&lt;/p&gt;&lt;p style=&quot;margin-bottom: 0.0001pt; font-size: 3px;&quot; class=&quot;MsoNormal&quot;&gt;&lt;span lang=&quot;EN-US&quot;&gt;&lt;br&gt;&lt;/span&gt;&lt;/p&gt;&lt;div style=&quot;text-indent: 0px;&quot;&gt;&lt;span style=&quot;background-color: initial; text-indent: 9.75pt;&quot;&gt;&amp;nbsp; &amp;nbsp; public Cats (String FirstName){&lt;br&gt;&lt;/span&gt;&lt;span style=&quot;text-indent: 9.75pt; background-color: initial;&quot;&gt;&amp;nbsp; &amp;nbsp;&amp;nbsp;&lt;/span&gt;&lt;span style=&quot;text-indent: 9.75pt; background-color: initial;&quot;&gt;super.TypeOfAnimal=”Pets”;&lt;/span&gt;&lt;span style=&quot;background-color: initial;&quot;&gt;&amp;nbsp; &amp;nbsp; &amp;nbsp;&amp;nbsp;&lt;/span&gt;&lt;span style=&quot;background-color: initial;&quot;&gt;&amp;nbsp;&amp;nbsp;&lt;/span&gt;&lt;span style=&quot;background-color: initial;&quot;&gt;super.NameOfAnimal=“Cats”;&lt;br&gt;&lt;/span&gt;&lt;span style=&quot;background-color: initial;&quot;&gt;&amp;nbsp; &amp;nbsp; super.FirstName=FirstName;}}&lt;/span&gt;&lt;/div&gt;&lt;p&gt;&lt;/p&gt;" style="rounded=0;whiteSpace=wrap;html=1;align=left;" vertex="1" parent="1">
                    <mxGeometry x="214" y="820" width="200" height="100" as="geometry"/>
                </mxCell>
                <mxCell id="11" style="edgeStyle=none;html=1;exitX=0.5;exitY=0;exitDx=0;exitDy=0;entryX=1;entryY=0.75;entryDx=0;entryDy=0;fontFamily=Helvetica;fontSize=3;" edge="1" parent="1" source="5" target="2">
                    <mxGeometry relative="1" as="geometry">
                        <Array as="points">
                            <mxPoint x="540" y="753"/>
                        </Array>
                    </mxGeometry>
                </mxCell>
                <mxCell id="5" value="&lt;p style=&quot;margin-bottom:0cm;margin-bottom:.0001pt&quot; class=&quot;MsoNormal&quot;&gt;&lt;span lang=&quot;EN-US&quot;&gt;public class Hamsters extends Animals {&lt;br&gt;&lt;/span&gt;&lt;/p&gt;&lt;div style=&quot;text-indent: 0px;&quot;&gt;&lt;span style=&quot;background-color: initial; text-indent: 9.75pt;&quot;&gt;&amp;nbsp; &amp;nbsp; public Hamsters (String FirstName){&lt;br&gt;&lt;/span&gt;&lt;span style=&quot;text-indent: 9.75pt; background-color: initial;&quot;&gt;&amp;nbsp; &amp;nbsp;&amp;nbsp;&lt;/span&gt;&lt;span style=&quot;text-indent: 9.75pt; background-color: initial;&quot;&gt;super.TypeOfAnimal=”Pets”;&lt;/span&gt;&lt;span style=&quot;background-color: initial;&quot;&gt;&amp;nbsp; &amp;nbsp; &amp;nbsp;&amp;nbsp;&lt;/span&gt;&lt;span style=&quot;background-color: initial;&quot;&gt;&amp;nbsp;&amp;nbsp;&lt;/span&gt;&lt;span style=&quot;background-color: initial;&quot;&gt;super.NameOfAnimal=“Hamsters”;&lt;br&gt;&lt;/span&gt;&lt;span style=&quot;background-color: initial;&quot;&gt;&amp;nbsp; &amp;nbsp; super.FirstName=FirstName;}}&lt;/span&gt;&lt;/div&gt;&lt;p&gt;&lt;/p&gt;" style="rounded=0;whiteSpace=wrap;html=1;align=left;" vertex="1" parent="1">
                    <mxGeometry x="430" y="820" width="220" height="100" as="geometry"/>
                </mxCell>
                <mxCell id="12" style="edgeStyle=none;html=1;exitX=0.5;exitY=1;exitDx=0;exitDy=0;entryX=0;entryY=0.25;entryDx=0;entryDy=0;fontFamily=Helvetica;fontSize=3;" edge="1" parent="1" source="6" target="2">
                    <mxGeometry relative="1" as="geometry">
                        <Array as="points">
                            <mxPoint x="105" y="678"/>
                        </Array>
                    </mxGeometry>
                </mxCell>
                <mxCell id="6" value="&lt;p style=&quot;margin-bottom:0cm;margin-bottom:.0001pt&quot; class=&quot;MsoNormal&quot;&gt;&lt;span lang=&quot;EN-US&quot;&gt;public class Horses extends Animals {&lt;br&gt;&lt;/span&gt;&lt;/p&gt;&lt;div style=&quot;text-indent: 0px;&quot;&gt;&lt;span style=&quot;background-color: initial; text-indent: 9.75pt;&quot;&gt;&amp;nbsp; &amp;nbsp; public Horses (String FirstName){&lt;br&gt;&lt;/span&gt;&lt;span style=&quot;text-indent: 9.75pt; background-color: initial;&quot;&gt;&amp;nbsp; &amp;nbsp;&amp;nbsp;&lt;/span&gt;&lt;span style=&quot;text-indent: 9.75pt; background-color: initial;&quot;&gt;super.TypeOfAnimal=”Packs”;&lt;/span&gt;&lt;span style=&quot;background-color: initial;&quot;&gt;&amp;nbsp; &amp;nbsp; &amp;nbsp;&amp;nbsp;&lt;/span&gt;&lt;span style=&quot;background-color: initial;&quot;&gt;&amp;nbsp;&amp;nbsp;&lt;/span&gt;&lt;span style=&quot;background-color: initial;&quot;&gt;super.NameOfAnimal=“Horses”;&lt;br&gt;&lt;/span&gt;&lt;span style=&quot;background-color: initial;&quot;&gt;&amp;nbsp; &amp;nbsp; super.FirstName=FirstName;}}&lt;/span&gt;&lt;/div&gt;&lt;p&gt;&lt;/p&gt;" style="rounded=0;whiteSpace=wrap;html=1;align=left;" vertex="1" parent="1">
                    <mxGeometry y="530" width="210" height="90" as="geometry"/>
                </mxCell>
                <mxCell id="7" value="&lt;p style=&quot;margin-bottom:0cm;margin-bottom:.0001pt&quot; class=&quot;MsoNormal&quot;&gt;&lt;span lang=&quot;EN-US&quot;&gt;public class Camels extends Animals {&lt;br&gt;&lt;/span&gt;&lt;/p&gt;&lt;div style=&quot;text-indent: 0px;&quot;&gt;&lt;span style=&quot;background-color: initial; text-indent: 9.75pt;&quot;&gt;&amp;nbsp; &amp;nbsp; public&amp;nbsp;&lt;/span&gt;Camels&lt;span style=&quot;background-color: initial; text-indent: 9.75pt;&quot;&gt;&amp;nbsp;(String FirstName){&lt;br&gt;&lt;/span&gt;&lt;span style=&quot;text-indent: 9.75pt; background-color: initial;&quot;&gt;&amp;nbsp; &amp;nbsp;&amp;nbsp;&lt;/span&gt;&lt;span style=&quot;text-indent: 9.75pt; background-color: initial;&quot;&gt;super.TypeOfAnimal=”Packs”;&lt;/span&gt;&lt;span style=&quot;background-color: initial;&quot;&gt;&amp;nbsp; &amp;nbsp; &amp;nbsp;&amp;nbsp;&lt;/span&gt;&lt;span style=&quot;background-color: initial;&quot;&gt;&amp;nbsp;&amp;nbsp;&lt;/span&gt;&lt;span style=&quot;background-color: initial;&quot;&gt;super.NameOfAnimal=“&lt;/span&gt;Camels&lt;span style=&quot;background-color: initial;&quot;&gt;”;&lt;br&gt;&lt;/span&gt;&lt;span style=&quot;background-color: initial;&quot;&gt;&amp;nbsp; &amp;nbsp; super.FirstName=FirstName;}}&lt;/span&gt;&lt;/div&gt;&lt;p&gt;&lt;/p&gt;" style="rounded=0;whiteSpace=wrap;html=1;align=left;" vertex="1" parent="1">
                    <mxGeometry x="230" y="530" width="210" height="90" as="geometry"/>
                </mxCell>
                <mxCell id="13" style="edgeStyle=none;html=1;exitX=0.5;exitY=1;exitDx=0;exitDy=0;entryX=1;entryY=0.25;entryDx=0;entryDy=0;fontFamily=Helvetica;fontSize=3;" edge="1" parent="1" source="8" target="2">
                    <mxGeometry relative="1" as="geometry">
                        <Array as="points">
                            <mxPoint x="570" y="678"/>
                        </Array>
                    </mxGeometry>
                </mxCell>
                <mxCell id="8" value="&lt;p style=&quot;margin-bottom:0cm;margin-bottom:.0001pt&quot; class=&quot;MsoNormal&quot;&gt;&lt;span lang=&quot;EN-US&quot;&gt;public class Donkeys&amp;nbsp;extends Animals {&lt;br&gt;&lt;/span&gt;&lt;/p&gt;&lt;div style=&quot;text-indent: 0px;&quot;&gt;&lt;span style=&quot;background-color: initial; text-indent: 9.75pt;&quot;&gt;&amp;nbsp; &amp;nbsp; public&amp;nbsp;&lt;/span&gt;Donkeys&lt;span style=&quot;background-color: initial; text-indent: 9.75pt;&quot;&gt;&amp;nbsp;(String FirstName){&lt;br&gt;&lt;/span&gt;&lt;span style=&quot;text-indent: 9.75pt; background-color: initial;&quot;&gt;&amp;nbsp; &amp;nbsp;&amp;nbsp;&lt;/span&gt;&lt;span style=&quot;text-indent: 9.75pt; background-color: initial;&quot;&gt;super.TypeOfAnimal=”Packs”;&lt;/span&gt;&lt;span style=&quot;background-color: initial;&quot;&gt;&amp;nbsp; &amp;nbsp; &amp;nbsp;&amp;nbsp;&lt;/span&gt;&lt;span style=&quot;background-color: initial;&quot;&gt;&amp;nbsp;&amp;nbsp;&lt;/span&gt;&lt;span style=&quot;background-color: initial;&quot;&gt;super.NameOfAnimal=“&lt;/span&gt;Donkeys&lt;span style=&quot;background-color: initial;&quot;&gt;”;&lt;br&gt;&lt;/span&gt;&lt;span style=&quot;background-color: initial;&quot;&gt;&amp;nbsp; &amp;nbsp; super.FirstName=FirstName;}}&lt;/span&gt;&lt;/div&gt;&lt;p&gt;&lt;/p&gt;" style="rounded=0;whiteSpace=wrap;html=1;align=left;" vertex="1" parent="1">
                    <mxGeometry x="460" y="530" width="220" height="90" as="geometry"/>
                </mxCell>
            </root>
        </mxGraphModel>
    </diagram>
</mxfile>